<svg width="17" height="17" viewBox="0 0 17 17" fill="none" xmlns="http://www.w3.org/2000/svg">
<path d="M4.92754 17C4.47585 17 4.08931 16.8416 3.76792 16.5248C3.44599 16.2075 3.28502 15.8262 3.28502 15.381C3.28502 14.9357 3.44599 14.5544 3.76792 14.2371C4.08931 13.9203 4.47585 13.7619 4.92754 13.7619C5.37923 13.7619 5.76576 13.9203 6.08715 14.2371C6.40908 14.5544 6.57005 14.9357 6.57005 15.381C6.57005 15.8262 6.40908 16.2075 6.08715 16.5248C5.76576 16.8416 5.37923 17 4.92754 17ZM13.1401 17C12.6884 17 12.3019 16.8416 11.9805 16.5248C11.6585 16.2075 11.4976 15.8262 11.4976 15.381C11.4976 14.9357 11.6585 14.5544 11.9805 14.2371C12.3019 13.9203 12.6884 13.7619 13.1401 13.7619C13.5918 13.7619 13.9786 13.9203 14.3005 14.2371C14.6219 14.5544 14.7826 14.9357 14.7826 15.381C14.7826 15.8262 14.6219 16.2075 14.3005 16.5248C13.9786 16.8416 13.5918 17 13.1401 17ZM9.03382 6.88095C8.80113 6.88095 8.60622 6.80324 8.44908 6.64781C8.2914 6.49292 8.21256 6.30079 8.21256 6.07143C8.21256 5.84206 8.2914 5.64967 8.44908 5.49424C8.60622 5.33935 8.80113 5.2619 9.03382 5.2619C9.2665 5.2619 9.46169 5.33935 9.61937 5.49424C9.77651 5.64967 9.85507 5.84206 9.85507 6.07143C9.85507 6.30079 9.77651 6.49292 9.61937 6.64781C9.46169 6.80324 9.2665 6.88095 9.03382 6.88095ZM8.21256 4.04762V0H9.85507V4.04762H8.21256ZM2.1558 12.9524L4.59903 8.58095L1.64251 2.42857H0V0.809524H2.68961L6.17995 8.09524H11.9493L15.1316 2.42857H17L12.9143 9.71429H5.83092L4.92754 11.3333H14.7826V12.9524H2.1558Z" fill="#1B41BF"/>
</svg>
